<svg width="560" height="560" viewBox="0 0 560 560" fill="none" xmlns="http://www.w3.org/2000/svg">
<g clip-path="url(#clip0_7134_65141)">
<path d="M280 560C434.64 560 560 434.64 560 280C560 125.36 434.64 0 280 0C125.36 0 0 125.36 0 280C0 434.64 125.36 560 280 560Z" fill="#0098EA"/>
<path d="M375.604 156.273H184.387C149.229 156.273 126.945 194.198 144.633 224.857L262.645 429.405C270.346 442.761 289.645 442.761 297.346 429.405L415.382 224.857C433.046 194.247 410.762 156.273 375.628 156.273H375.604ZM262.549 368.064L236.848 318.323L174.834 207.41C170.743 200.311 175.796 191.214 184.363 191.214H262.525V368.088L262.549 368.064ZM385.109 207.386L323.119 318.347L297.418 368.064V191.19H375.58C384.147 191.19 389.2 200.287 385.109 207.386Z" fill="white"/>
</g>
<defs>
<clipPath id="clip0_7134_65141">
<rect width="560" height="560" fill="white"/>
</clipPath>
</defs>
</svg>
